<?xml version="1.0" encoding="UTF-8" standalone="no"?>
<!DOCTYPE svg PUBLIC "-//W3C//DTD SVG 1.1//EN" "http://www.w3.org/Graphics/SVG/1.1/DTD/svg11.dtd">
<svg width="100%" height="100%" viewBox="0 0 2048 2048" version="1.1" xmlns="http://www.w3.org/2000/svg" xmlns:xlink="http://www.w3.org/1999/xlink" xml:space="preserve" xmlns:serif="http://www.serif.com/" style="fill-rule:evenodd;clip-rule:evenodd;stroke-linejoin:round;stroke-miterlimit:2;">
    <g id="Fondo" transform="matrix(2.009759,0,0,2.009759,-0.497625,-1.384452)">
        <path d="M501.499,229.5C514.18,242.487 516.487,249.686 520.025,260.607C522.009,269.772 523.386,274.724 522.383,290.489C521.273,302.905 521.008,302.809 520.149,308.413L519.5,307.399L518.953,306.5C515.132,299.266 521.607,270.592 483.23,245.927C458.382,229.958 406.822,223.746 345.534,237.642C333.792,240.304 324.099,242.162 317.43,245.27C315.385,246.223 315.35,246.222 313.353,245.368C315.682,243.527 402.754,164.247 529.554,145.832C543.519,143.804 697.661,119.401 808.376,221.635C831.067,242.589 851.02,244.478 878.917,283.194C894.734,305.146 901.309,330.981 904.304,339.561C905.833,343.944 907.112,344.432 905.438,345.345C903.952,346.156 891.927,327.777 870.749,316.036C868.194,314.62 863.159,310.583 864.025,313.437C865.611,318.663 914.18,370.498 903.592,435.516C900.447,454.825 900.027,456.412 898.951,455.204C896.826,452.82 904.906,449.403 883.895,418.231C879.912,412.322 876.652,404.548 877.888,411.55C877.989,412.117 881.863,422.82 878.136,444.429C872.888,474.856 857.563,494.898 832.202,510.017C831.239,510.591 825.43,514.054 819.454,515.841C813.838,517.52 825.322,511.223 828.319,492.475C828.881,488.962 828.981,489.082 829.303,487.432C832.114,486.201 832.844,486.631 837.972,478.827C838.686,477.74 843.434,471.132 846.804,459.587C860.01,414.347 831.512,387.527 831.498,387.501C830.484,385.48 838.523,351.681 830.335,330.481C826.586,320.774 842.052,343.974 846.818,354.308C849.7,360.557 850.425,345.585 846.635,329.471C839.682,299.916 802.9,264.559 802.542,264.732C798.079,266.881 815.498,274.726 811.092,321.456C810.303,329.829 807.378,341.8 806.479,336.511C802.18,311.238 785.579,288.472 776.925,276.195C768.683,264.501 746.884,242.84 746.514,242.997C744.975,243.651 746.456,245.471 746.852,248.457C750.361,274.927 748.324,274.978 748.38,288.461C748.385,289.681 747.933,289.357 746.731,289.36C741.38,265.765 703.301,199.178 613.426,178.871C611.32,178.396 570.731,169.225 586.696,175.161C642.048,195.743 660.442,228.225 662.758,239.456C662.894,240.119 662.891,240.814 663.108,241.455C663.253,241.886 663.852,242.161 663.824,242.614C663.78,243.302 662.947,242.781 662.978,243.5C663.013,244.32 663.873,243.763 663.909,244.594C665.055,252.998 664.877,252.963 665.044,261.479C661.941,281.719 660.011,287.713 644.117,307.207C636.499,315.353 636.404,315.235 635.766,315.963C633.931,318.054 633.893,315.611 632.731,309.454C629.545,298.449 628.26,291.26 618.901,280.106C600.37,259.799 575.128,248.619 563.63,243.198C561.141,242.126 547.769,236.365 531.553,232.314C520.065,229.444 501.739,228.238 501.561,228.52C501.386,228.797 501.674,229.224 501.499,229.5Z" style="fill:rgb(245,250,250);"/>
        <path d="M971.662,616.704C973.336,617.916 973.355,618.311 972.981,642.503C972.713,659.798 974.125,660.214 971.339,664.252C961.277,671.485 961.337,671.472 950.52,677.541C909.16,704.336 852.367,712.284 836.465,713.077C769.135,716.436 718.103,696.482 708.445,692.706C708.26,692.633 704.653,693.273 708.681,695.18C736.298,708.259 760.794,715.286 765.461,716.625C801.58,726.986 840.05,727.573 842.5,727.524C910.719,726.155 943.918,710.026 971.314,695.081C972.823,696.405 972.983,696.428 972.902,698.49C972.271,714.417 974.803,723.043 970.251,726.004C967.714,727.382 967.702,727.338 967.484,727.46C928.925,749.001 853.767,766.449 843.588,768.812L842.5,767.204L841.5,767.507L840.5,767.553L839.5,767.577L838.5,767.683C836.575,767.912 830.221,768.149 829.5,768.176L828.5,768.499L827.5,769.156L826.5,770.011C827.183,770.594 827.867,771.177 828.55,771.76C810.122,774.598 810.156,774.672 808.552,774.89C807.998,774.44 808.053,773.476 807.5,773.026C804.399,770.502 755.288,777.685 659.386,734.75C656.284,733.361 647.226,729.306 621.633,715.251C596.427,701.409 591.792,694.111 585.5,691.07L584.821,690.5L583.5,689.713L584.158,688.5L584.504,687.493C591.47,691.142 620.482,709.842 677.474,729.573C685.758,732.441 685.862,732.056 686.577,732.317C688.779,733.121 688.495,731.234 688.677,731.131C712.19,743.491 769.766,754.677 819.487,755.973C873.863,757.39 917.531,746.844 917.527,746.613C917.439,742.517 910.961,751.149 837.495,748.689C737.406,745.337 664.89,705.19 651.385,697.713C605.095,672.086 586.091,654.369 565.91,619.265C564.468,616.756 552.089,592.551 551.944,591.488C551.881,591.023 553.175,590.942 553.291,590.935C553.374,590.93 576.482,625.329 633.668,650.082C686.206,672.823 725.124,668.352 732.49,671.276C733.075,671.508 734.533,671.579 734.629,671.519C735.121,671.211 735.213,670.458 735.705,670.149C747.591,673.993 761.209,674.928 763.459,675.082C763.515,676.213 762.694,675.972 762.75,677.104C762.754,677.172 762.753,677.153 763.569,677.307C779.763,680.365 788.148,683.305 814.501,683.064C824.909,682.968 878.113,682.482 938.394,643.335C960.199,629.175 969.355,619.214 971.662,616.704Z" style="fill:rgb(82,172,201);"/>
        <path d="M51.583,811.51C53.819,810.486 65.594,802.973 82.78,792.984C123.705,769.198 192.808,749.246 197.502,749.245C251.623,749.234 291.696,750.57 363.429,803.599C366.247,805.682 395.853,827.568 398.5,829.834L399.886,828.102C411.057,840.291 442.499,865.76 462.766,875.25C463.043,875.38 467.285,877.367 465.313,878.101C462.059,879.314 337.446,816.972 236.484,820.005C191.064,821.369 147.134,830.1 89.36,859.215C68.098,869.93 52.672,881.663 51.55,880.462C51.382,880.282 51.387,823.946 51.583,811.51Z" style="fill:rgb(26,104,142);"/>
        <path d="M644.117,307.207C644.766,307.671 644.821,308.719 645.471,309.183C645.963,309.535 677.546,303.052 717.568,314.204C720.502,315.022 721.291,314.481 721.886,317.5C721.927,317.706 722.013,317.648 723.592,319.493C723.619,329.547 723.322,329.432 722.589,339.492C722.348,342.789 734.754,334.099 743.378,324.416C752.398,311.788 752.66,309.358 754.179,299.365C754.728,295.759 758.105,301.45 762.85,308.261C795.915,355.732 787.388,376.6 785.049,382.326C781.094,392.005 780.286,391.538 777.624,395.602C775.152,399.378 794.973,400.567 802.253,396.118C808.899,392.057 814.462,384.367 815.325,383.175C816.857,381.057 817.024,386.245 817.034,386.547C818.072,418.696 817.371,438.49 786.755,469.92C786.68,468.74 785.953,468.765 786.6,467.5C796.997,447.192 788.507,371.939 711.516,365.229L711.758,364.5L711.5,363.609L710.5,363.275L709.5,363.069C694.391,360.266 646.816,352.266 603.868,403.807C579.316,433.271 566.842,483.587 571.102,498.651C588.918,561.641 642.947,608.037 667.693,617.148C667.831,617.199 667.823,617.105 669.445,616.576C677.336,623.771 694.07,632.636 696.328,633.832C732.994,653.257 786.376,670.409 857.546,657.782C870.207,655.535 870.258,652.322 874.647,654.747C842.802,670.816 794.696,680.745 772.467,676.708C767.899,675.878 768.018,675.774 763.459,675.082C761.209,674.928 747.591,673.993 735.705,670.149C732.411,669.021 707.404,662.993 676.749,646.041C588.361,597.165 574.66,522.768 569.646,502.438C564.944,483.448 558.943,406.991 613.821,360.91C621.081,354.814 658.488,339.805 699.541,348.278C739.843,356.596 737.475,364.097 744.511,366.079C747.925,367.041 742.603,361.819 734.56,357.398C683.321,329.239 640.443,330.875 600.386,348.251C589.645,353.147 524.523,382.832 501.07,457.372C495.859,473.934 496.739,474.06 495.393,481.441C495.285,482.033 495.051,481.727 494.61,482.096C494.33,481.859 494.051,481.623 493.772,481.386C493.685,477.395 492.985,444.954 494.27,431.481C496.407,409.085 499.164,409.321 498.403,407.532C498.19,407.031 497.57,406.78 497.358,406.28C498.542,404.905 498.473,404.988 499.659,403.65C530.379,354.157 564.496,335.734 589.588,323.673C599.518,318.9 626.449,310.452 631.5,311.182C631.91,310.606 632.321,310.03 632.731,309.454C633.893,315.611 633.931,318.054 635.766,315.963C636.404,315.235 636.499,315.353 644.117,307.207Z" style="fill:rgb(45,150,186);"/>
        <path d="M137.148,566.075C140.076,568.627 139.68,568.925 139.845,569.27C139.854,569.29 142.583,570.117 142.653,571.464C142.882,575.896 146.667,576.536 147.011,573.511C147.037,573.275 145.642,574.691 144.781,571.561C142.824,564.457 149.448,573.141 152.52,570.542C154.119,569.188 156.834,573.119 156.839,573.359C156.9,576.427 159.594,574.472 158.907,572.502C158.214,570.519 159.369,569.195 159.405,568.507C159.654,563.828 159.92,563.886 159.82,563.496C159.25,561.266 167.652,560.033 162.236,557.774C160.182,556.917 158.578,559.203 158.448,559.263C151.868,562.285 150.692,558.234 152.319,557.295C154.806,555.86 158.772,558.853 158.548,553.548C158.353,548.94 176.923,540.75 178.702,539.966C248.458,509.2 285.949,538.243 293.194,543.855C300.925,549.844 301.88,547.055 312.543,545.97C383.466,538.753 382.05,599.741 383.525,607.5L383.375,608.5L383.457,609.5C383.079,610.188 382.7,610.876 382.322,611.564C377.901,601.702 377.458,601.979 373.987,597.193C371.408,593.801 353.264,562.551 314.371,573.255C308.571,574.852 330.585,582.769 335.038,612.57C335.356,614.692 337.653,630.066 335.014,639.388C334.141,642.471 330.378,636.608 329.003,634.862C328.331,634.101 322.982,628.04 320.679,625.281C308.297,612.316 301.424,610.028 294.714,607.03C262.553,594.733 232.61,607.642 221.456,611.39C216.371,613.099 221.976,613.953 227.193,618.798C240.658,631.302 244.193,643.268 245.24,645.606C245.378,645.916 248.481,652.845 245.395,649.846C213.913,619.243 139.034,610.216 52.598,674.635C52.417,674.1 51.46,674.109 51.278,673.574C50.872,672.375 51.519,636.708 51.577,633.503C51.606,631.886 51.171,631.671 52.552,630.719C98.224,602.846 113.841,585.058 137.148,566.075Z" style="fill:rgb(206,234,242);"/>
        <path d="M427.424,269.301C437.246,266.864 464.974,268.603 483.617,278.237C493.432,283.667 495.72,284.647 506.827,296.284C505.589,297.371 505.702,297.373 504.471,298.462C490.951,310.412 488.705,308.071 462.397,338.399C405.096,412.335 408.278,474.069 407.487,492.354C363.238,485.28 350.16,499.124 344.609,497.151C331.698,492.56 331.909,491.851 318.363,489.819C324.095,387.32 371.118,333.769 372.484,327.459C375.75,326.836 375.843,327.05 381.439,327.89C390.375,329.23 394.284,330.242 394.543,330.338C405.503,334.443 386.467,318.926 382.44,314.529C390,306.023 398.801,293.179 420.119,276.019C425.908,271.359 426.77,269.976 427.424,269.301Z" style="fill:rgb(29,106,152);"/>
        <path d="M313.353,245.368C315.35,246.222 315.385,246.223 317.43,245.27C324.099,242.162 333.792,240.304 345.534,237.642C406.822,223.746 458.382,229.958 483.23,245.927C521.607,270.592 515.132,299.266 518.953,306.5L519.5,307.399L520.149,308.413C518.557,314.929 517.151,307.441 506.827,296.284C495.72,284.647 493.432,283.667 483.617,278.237C464.974,268.603 437.246,266.864 427.424,269.301C414.86,265.878 379.54,275.375 375.49,276.464C371.621,277.837 344.396,287.497 328.865,297.913C325.113,300.43 330.015,299.015 334.509,298.992C344.875,298.94 350.162,300.407 352.453,300.858C368.344,305.219 367.674,306.659 382.44,314.529C386.467,318.926 405.503,334.443 394.543,330.338C394.284,330.242 390.375,329.23 381.439,327.89C375.843,327.05 375.75,326.836 372.484,327.459C360.674,323.492 332.849,328.603 329.461,329.225C303.48,333.737 284.457,341.995 279.378,345.331C229.864,365.123 138.568,442.538 103.213,463.007C74.637,479.55 56.812,485.447 52.56,486.853C48.697,482.883 53.15,479.348 53.37,479.241C85.47,463.721 114.962,456.01 224.978,330.946C258.19,293.191 305.916,251.815 313.353,245.368Z" style="fill:rgb(199,230,239);"/>
        <path d="M563.63,243.198C575.128,248.619 600.37,259.799 618.901,280.106C613.173,288.165 590.676,285.133 551.315,322.301C532.723,339.858 523.113,355.459 522.386,356.423C511.991,370.21 497.979,402.138 498.31,402.711C498.584,403.185 499.384,403.176 499.659,403.65C498.473,404.988 498.542,404.905 497.358,406.28C483.066,431.374 478.728,457.848 477.958,462.546C469.12,516.482 487.955,599.049 554.415,664.579C558.983,669.083 558.957,669.01 563.611,673.368C562.229,674.372 562.241,675.081 560.634,674.216C554.332,670.826 530.471,660.353 509.373,641.644C490.646,625.039 489.78,623.905 489.52,621.5L488.27,620.362C508.215,574.847 458.775,546.158 453.404,542.644C450.304,540.616 441.637,537.369 447.404,537.139C474.177,536.069 473.272,542.395 477.424,542.008C479.71,541.795 466.96,519.426 441.26,504.938C437.627,502.89 437.671,503.015 434.192,500.84C434.75,498.922 435.001,498.984 434.831,497.499C433.473,485.698 425.998,420.71 456.98,350.669C460.894,341.821 464.046,342.384 462.397,338.399C488.705,308.071 490.951,310.412 504.471,298.462C505.702,297.373 505.589,297.371 506.827,296.284C517.151,307.441 518.557,314.929 520.149,308.413C521.008,302.809 521.273,302.905 522.383,290.489C523.386,274.724 522.009,269.772 520.025,260.607C520.858,260.596 520.61,260.02 521.5,260.008C522.186,259.999 521.916,260.667 522.557,260.573C523.585,260.423 524.5,259.835 525.457,259.43C549.498,249.244 562.08,247.758 564.5,246.553C564.861,246.374 563.546,245.68 563.907,245.5L562.69,244.5L563.63,243.198Z" style="fill:rgb(36,134,166);"/>
        <path d="M663.909,244.594C663.873,243.763 663.013,244.32 662.978,243.5C662.947,242.781 663.78,243.302 663.824,242.614C663.852,242.161 663.253,241.886 663.108,241.455C662.891,240.814 662.894,240.119 662.758,239.456C660.442,228.225 642.048,195.743 586.696,175.161C570.731,169.225 611.32,178.396 613.426,178.871C703.301,199.178 741.38,265.765 746.731,289.36C747.933,289.357 748.385,289.681 748.38,288.461C748.324,274.978 750.361,274.927 746.852,248.457C746.456,245.471 744.975,243.651 746.514,242.997C746.884,242.84 768.683,264.501 776.925,276.195C785.579,288.472 802.18,311.238 806.479,336.511C807.378,341.8 810.303,329.829 811.092,321.456C815.498,274.726 798.079,266.881 802.542,264.732C802.9,264.559 839.682,299.916 846.635,329.471C850.425,345.585 849.7,360.557 846.818,354.308C842.052,343.974 826.586,320.774 830.335,330.481C838.523,351.681 830.484,385.48 831.498,387.501C831.512,387.527 860.01,414.347 846.804,459.587C843.434,471.132 838.686,477.74 837.972,478.827C832.844,486.631 832.114,486.201 829.303,487.432C829.246,483.872 829.307,483.985 829.521,480.495C829.569,479.721 829.459,479.612 829.405,479.559C828.822,478.984 828.598,479.584 828.049,479.043C831.59,466.777 832.011,446.648 829.237,452.219C825.061,460.607 812.641,482.986 778.656,495.9C768.58,499.728 751.437,500.036 750.5,499.515C750.037,499.258 749.915,498.58 749.452,498.323C751.406,497.204 751.364,497.262 753.363,496.236C779.829,482.663 778.142,478.325 786.755,469.92C817.371,438.49 818.072,418.696 817.034,386.547C817.024,386.245 816.857,381.057 815.325,383.175C814.462,384.367 808.899,392.057 802.253,396.118C794.973,400.567 775.152,399.378 777.624,395.602C780.286,391.538 781.094,392.005 785.049,382.326C787.388,376.6 795.915,355.732 762.85,308.261C758.105,301.45 754.728,295.759 754.179,299.365C752.66,309.358 752.398,311.788 743.378,324.416C734.754,334.099 722.348,342.789 722.589,339.492C723.322,329.432 723.619,329.547 723.592,319.493C721.508,300.236 718.994,287.535 692.934,264.086C689.471,261.116 689.504,261.122 689.194,260.878C667.517,243.869 666.268,244.12 663.909,244.594Z" style="fill:rgb(199,230,238);"/>
        <path d="M398.558,581.56C401.273,581.086 420.726,576.929 441.773,592.28C437.41,595.387 436.841,593.602 432.748,594.651C432.254,594.778 431.975,595.382 431.481,595.509C431.075,593.741 431.133,593.728 431.043,593.599C430.946,593.461 430.934,593.701 429.497,595.041C421.473,597.749 416.411,602.596 417.278,604.59C434.992,645.352 486.263,695.094 546.296,726.986C551.227,729.676 551.193,729.592 556.293,731.822C574.153,740.362 655.213,787.685 772.514,778.71C779.735,778.157 779.644,778.135 783.538,777.902C796.072,776.516 795.998,776.625 808.552,774.89C810.156,774.672 810.122,774.598 828.55,771.76C838.149,769.993 842.39,769.072 843.588,768.812C853.767,766.449 928.925,749.001 967.484,727.46C967.702,727.338 967.714,727.382 970.251,726.004C970.334,726.488 971.073,726.683 971.155,727.167C971.227,727.593 969.652,728.423 969.502,728.502C964.773,730.995 959.554,738.537 948.365,745.215C942.448,748.99 942.516,748.922 936.651,752.773L935.5,751.315L934.5,751.853C931.364,753.785 894.009,768.425 866.507,775.523C839.987,782.367 757.622,803.984 655.442,788.855C647.869,787.734 647.788,787.262 641.509,785.462C640.71,786.075 641.241,786.399 640.5,786.968C640.436,787.016 640.417,787.032 639.5,787.004C638.383,786.971 638.528,786.704 637.492,786.617C634.428,786.36 634.494,786.87 631.5,786.525L630.272,787.88C618.342,780.791 607.78,781.685 580.483,772.548C480.062,738.933 430.426,686.011 397.842,628.497L397.073,629.5C389.524,650.248 394.042,669.908 394.828,673.33C392.41,677.032 394.296,677.225 395.698,682.463C403.555,711.824 415.793,726.781 414.726,728.5C414.43,728.976 413.725,729.094 413.43,729.57C387.019,704.677 375.428,677.739 373.224,672.616C364.356,652.007 366.066,651.474 365.271,649.704C365.08,649.28 364.195,649.543 364.004,649.119C363.226,636.594 368.492,600.621 372.5,598.291C373.033,597.981 373.454,597.502 373.987,597.193C377.458,601.979 377.901,601.702 382.322,611.564C383.062,613.348 383.676,616.533 385.923,612.834C387.673,609.955 392.191,605.316 398.558,581.56Z" style="fill:rgb(181,220,231);"/>
        <path d="M394.828,673.33C398.171,681.67 419.972,725.945 480.249,759.936C548.116,798.208 624.221,808.801 673.46,816.749C676.666,817.266 685.527,817.965 686.579,818.048C770.393,831.146 892.565,781.678 936.651,752.773C942.516,748.922 942.448,748.99 948.365,745.215C948.888,746.565 949.671,746.768 948.584,747.544C942.144,752.146 942.258,752.229 924.214,766.131C855.915,818.751 793.154,841.709 767.473,846.357C639.245,869.564 503.646,816.893 490.918,807.021C440.059,767.573 425.96,740.578 413.43,729.57C413.725,729.094 414.43,728.976 414.726,728.5C415.793,726.781 403.555,711.824 395.698,682.463C394.296,677.225 392.41,677.032 394.828,673.33Z" style="fill:rgb(36,121,167);"/>
        <path d="M318.363,489.819C331.909,491.851 331.698,492.56 344.609,497.151C350.16,499.124 363.238,485.28 407.487,492.354C412.328,493.861 413.912,493.542 422.506,496.483C428.461,498.521 428.139,499.218 434.192,500.84C437.671,503.015 437.627,502.89 441.26,504.938C466.96,519.426 479.71,541.795 477.424,542.008C473.272,542.395 474.177,536.069 447.404,537.139C441.637,537.369 450.304,540.616 453.404,542.644C458.775,546.158 508.215,574.847 488.27,620.362C484.109,627.759 483.986,627.558 479.077,634.359C474.047,636.886 474.881,637.872 470.502,641.504L469.034,640.5L469.062,639.5L469.401,638.5L469.508,637.5L469.865,636.5C470.421,632.8 480.27,609.656 466.25,586.648C461.541,578.918 446.041,567.502 434.496,567.657C424.567,567.791 424.122,568.6 422.953,567.013C415.909,557.452 410.735,548.696 381.52,542.228C373.732,540.504 385.537,546.466 393.676,564.431C397.363,572.569 395.872,572.975 398.558,581.56C392.191,605.316 387.673,609.955 385.923,612.834C383.676,616.533 383.062,613.348 382.322,611.564C382.7,610.876 383.079,610.188 383.457,609.5L383.375,608.5L383.525,607.5C382.05,599.741 383.466,538.753 312.543,545.97C301.88,547.055 300.925,549.844 293.194,543.855C285.949,538.243 248.458,509.2 178.702,539.966C176.923,540.75 158.353,548.94 158.548,553.548C158.772,558.853 154.806,555.86 152.319,557.295C150.692,558.234 151.868,562.285 158.448,559.263C158.578,559.203 160.182,556.917 162.236,557.774C167.652,560.033 159.25,561.266 159.82,563.496C159.92,563.886 159.654,563.828 159.405,568.507C159.369,569.195 158.214,570.519 158.907,572.502C159.594,574.472 156.9,576.427 156.839,573.359C156.834,573.119 154.119,569.188 152.52,570.542C149.448,573.141 142.824,564.457 144.781,571.561C145.642,574.691 147.037,573.275 147.011,573.511C146.667,576.536 142.882,575.896 142.653,571.464C142.583,570.117 139.854,569.29 139.845,569.27C139.68,568.925 140.076,568.627 137.148,566.075C152.759,552.6 173.53,537.316 176.778,534.926C222.52,503.653 237.287,501.482 264.635,492.771C288.819,487.574 301.219,487.64 318.363,489.819Z" style="fill:rgb(251,252,251);"/>
        <path d="M600.386,348.251C603.984,356.421 605.081,355.619 606.402,356.691C607.783,357.813 606.608,358.317 606.663,358.553C606.878,359.467 610.317,358.365 608.492,361.5C607.253,363.628 606.858,363.065 604.603,363.826C604.06,364.009 605.468,365.674 603.541,365.661C600.951,365.643 600.023,366.264 599.47,366.415C595.686,367.444 596.28,368.421 593.669,369.668C588.054,372.349 589.071,373.723 583.728,376.905C578.693,379.904 579.459,380.742 576.321,383.14C565.674,391.279 545.178,421.82 542.066,434.207C541.968,434.41 539.172,444.576 536.47,452.489C505.733,542.489 549.785,608.321 568.037,630.872C569.862,633.127 585.585,652.554 591.746,658.306C613.414,678.535 631.833,702.939 688.677,731.131C688.495,731.234 688.779,733.121 686.577,732.317C685.862,732.056 685.758,732.441 677.474,729.573C620.482,709.842 591.47,691.142 584.504,687.493C584.201,687.31 580.713,685.203 580.713,685.203C571.832,678.755 570.724,680.326 563.611,673.368C558.957,669.01 558.983,669.083 554.415,664.579C487.955,599.049 469.12,516.482 477.958,462.546C478.728,457.848 483.066,431.374 497.358,406.28C497.57,406.78 498.19,407.031 498.403,407.532C499.164,409.321 496.407,409.085 494.27,431.481C492.985,444.954 493.685,477.395 493.772,481.386C494.051,481.623 494.33,481.859 494.61,482.096C495.051,481.727 495.285,482.033 495.393,481.441C496.739,474.06 495.859,473.934 501.07,457.372C524.523,382.832 589.645,353.147 600.386,348.251Z" style="fill:rgb(97,183,208);"/>
        <path d="M294.714,607.03L293.5,608.264C290.726,609.034 291.639,609.9 290.899,612.636C287.164,626.432 286.97,655.506 299.906,677.302C300.164,677.737 302.706,682.02 303.059,682.777C304.232,685.291 303.217,685.292 303.176,685.81C302.516,685.456 282.405,670.731 275.489,668.942C273.435,668.41 273.385,670.738 285.354,693.555C287.328,697.318 281.13,693.669 277.268,691.964C269.226,688.414 223.852,668.388 168.49,676.399C104.438,685.668 60.644,716.687 53.5,720.453L53.237,719.5L52.991,718.5L51.389,717.499C51.468,677.793 51.026,677.611 52.598,674.635C139.034,610.216 213.913,619.243 245.395,649.846C248.481,652.845 245.378,645.916 245.24,645.606C244.193,643.268 240.658,631.302 227.193,618.798C221.976,613.953 216.371,613.099 221.456,611.39C232.61,607.642 262.553,594.733 294.714,607.03Z" style="fill:rgb(37,124,169);"/>
        <path d="M373.987,597.193C373.454,597.502 373.033,597.981 372.5,598.291C368.492,600.621 363.226,636.594 364.004,649.119C363.823,650.219 363.6,650.124 363.609,651.521C363.975,712.902 388.98,743.39 402.043,759.853C450.4,820.797 570.783,859.501 597.369,866.998C611.411,871.147 612.881,871.273 614.14,871.83C615.273,872.331 614.561,873.544 612.449,873.211C602.503,871.641 602.589,871.708 592.478,870.674C475.633,858.734 417.382,822.475 376.148,783.889C376.974,782.055 377.121,782.065 377.038,781.913C376.257,780.483 375.197,780.979 375.12,780.891C374.875,780.614 375.348,780.106 375.169,779.781C375.042,779.551 374.58,779.786 374.402,779.592C373.22,778.301 367.383,770.992 366.781,770.238C328.045,721.726 314.615,698.728 313.707,697.5L313.895,696.182C318.7,699.187 355.385,731.942 356.668,730.939C358.423,729.568 356.854,729.323 354.829,726.314C315.007,667.13 320.84,639.968 319.722,627.551C319.704,627.354 319.793,627.383 320.679,625.281C322.982,628.04 328.331,634.101 329.003,634.862C330.378,636.608 334.141,642.471 335.014,639.388C337.653,630.066 335.356,614.692 335.038,612.57C330.585,582.769 308.571,574.852 314.371,573.255C353.264,562.551 371.408,593.801 373.987,597.193Z" style="fill:rgb(33,113,160);"/>
        <path d="M542.066,434.207C542.442,434.538 543.185,434.033 543.561,434.364C545.589,436.156 537.55,438.637 539.995,479.46C544.721,558.357 594.794,602.306 608.367,615.734C608.9,616.261 608.908,616.129 609.492,616.556C610.638,616.548 611.205,617.719 611.233,616.545C611.25,615.822 610.518,616.191 610.534,615.492C610.054,614.786 587.683,589.046 574.918,543.374C573.005,536.526 568.165,504.921 568.479,504.48C568.83,503.986 569.579,503.848 569.88,503.323C570.031,503.058 569.495,502.703 569.646,502.438C574.66,522.768 588.361,597.165 676.749,646.041C707.404,662.993 732.411,669.021 735.705,670.149C735.213,670.458 735.121,671.211 734.629,671.519C734.533,671.579 733.075,671.508 732.49,671.276C725.124,668.352 686.206,672.823 633.668,650.082C576.482,625.329 553.374,590.93 553.291,590.935C553.175,590.942 551.881,591.023 551.944,591.488C552.089,592.551 564.468,616.756 565.91,619.265C586.091,654.369 605.095,672.086 651.385,697.713C664.89,705.19 737.406,745.337 837.495,748.689C910.961,751.149 917.439,742.517 917.527,746.613C917.531,746.844 873.863,757.39 819.487,755.973C769.766,754.677 712.19,743.491 688.677,731.131C631.833,702.939 613.414,678.535 591.746,658.306C585.585,652.554 569.862,633.127 568.037,630.872C549.785,608.321 505.733,542.489 536.47,452.489C539.172,444.576 541.968,434.41 542.066,434.207Z" style="fill:rgb(192,230,239);"/>
        <path d="M488.27,620.362L489.52,621.5C489.78,623.905 490.646,625.039 509.373,641.644C530.471,660.353 554.332,670.826 560.634,674.216C562.241,675.081 562.229,674.372 563.611,673.368C570.724,680.326 571.832,678.755 580.713,685.203C580.713,685.203 584.201,687.31 584.504,687.493L584.158,688.5L583.5,689.713L584.821,690.5L585.5,691.07C591.792,694.111 596.427,701.409 621.633,715.251C647.226,729.306 656.284,733.361 659.386,734.75C755.288,777.685 804.399,770.502 807.5,773.026C808.053,773.476 807.998,774.44 808.552,774.89C795.998,776.625 796.072,776.516 783.538,777.902C779.644,778.135 779.735,778.157 772.514,778.71C655.213,787.685 574.153,740.362 556.293,731.822C556.203,731.232 556.59,730.633 556.5,730.042C556.453,729.731 556.18,729.981 553.559,727.44C501.875,677.334 483.456,639.241 479.077,634.359C483.986,627.558 484.109,627.759 488.27,620.362Z" style="fill:rgb(32,116,153);"/>
        <path d="M303.176,685.81C307.635,689.454 307.231,689.792 313.895,696.182L313.707,697.5C314.615,698.728 328.045,721.726 366.781,770.238C367.383,770.992 373.22,778.301 374.402,779.592C374.58,779.786 375.042,779.551 375.169,779.781C375.348,780.106 374.875,780.614 375.12,780.891C375.197,780.979 376.257,780.483 377.038,781.913C377.121,782.065 376.974,782.055 376.148,783.889C333.165,744.055 317.375,739.314 305.568,734.309C261.858,719.481 203.04,701.27 125.549,720.685C76.559,732.959 58.566,750.817 51.634,750.44C51.58,749.002 51.383,749.012 51.389,717.499L52.991,718.5L53.237,719.5L53.5,720.453C60.644,716.687 104.438,685.668 168.49,676.399C223.852,668.388 269.226,688.414 277.268,691.964C281.13,693.669 287.328,697.318 285.354,693.555C273.385,670.738 273.435,668.41 275.489,668.942C282.405,670.731 302.516,685.456 303.176,685.81Z" style="fill:rgb(22,85,126);"/>
        <path d="M279.378,345.331L279.19,346.5C270.654,353.277 215.705,433.678 209.253,457.308C203.612,463.083 135.47,519.987 122.755,528.972C122.745,528.405 121.658,528.247 121.648,527.68C121.641,527.283 124.341,525.793 128.647,521.626C145.478,505.339 173.665,470.053 177.38,465.403C179.839,462.324 207.613,427.554 207.559,426.473C207.453,424.371 206.255,426.586 187.442,443.433C140.532,485.44 58.538,537.337 51.68,537.537C51.45,535.549 51.325,535.645 51.329,532.499C51.395,489.583 50.948,489.347 52.56,486.853C56.812,485.447 74.637,479.55 103.213,463.007C138.568,442.538 229.864,365.123 279.378,345.331Z" style="fill:rgb(96,183,208);"/>
        <path d="M397.842,628.497C430.426,686.011 480.062,738.933 580.483,772.548C607.78,781.685 618.342,780.791 630.272,787.88C652.508,803.059 684.894,815.293 685.5,816.035C685.616,816.176 685.58,816.184 686.579,818.048C685.527,817.965 676.666,817.266 673.46,816.749C624.221,808.801 548.116,798.208 480.249,759.936C419.972,725.945 398.171,681.67 394.828,673.33C394.042,669.908 389.524,650.248 397.073,629.5L397.842,628.497Z" style="fill:rgb(98,185,210);"/>
        <path d="M209.253,457.308C247.496,429.67 281.165,389.393 256.798,421.704C251.719,428.439 252.413,428.891 195.235,507.297C193.858,509.185 186.681,519.028 177.327,530.376C174.321,534.022 176.608,534.379 176.778,534.926C173.53,537.316 152.759,552.6 137.148,566.075C113.841,585.058 98.224,602.846 52.552,630.719C50.492,628.471 51.73,625.717 51.38,570.497C51.768,570.637 52.112,570.881 52.5,571.021C57.93,572.98 117.335,532.651 122.755,528.972C135.47,519.987 203.612,463.083 209.253,457.308Z" style="fill:rgb(31,116,153);"/>
        <path d="M329.461,329.225C329.775,329.361 330.16,328.928 330.474,329.063C333.009,330.158 330.825,330.974 326.017,338.189C317.044,351.652 305.678,366.29 287.958,406.717C277.97,429.505 263.071,483.754 264.635,492.771C237.287,501.482 222.52,503.653 176.778,534.926C176.608,534.379 174.321,534.022 177.327,530.376C186.681,519.028 193.858,509.185 195.235,507.297C252.413,428.891 251.719,428.439 256.798,421.704C281.165,389.393 247.496,429.67 209.253,457.308C215.705,433.678 270.654,353.277 279.19,346.5L279.378,345.331C284.457,341.995 303.48,333.737 329.461,329.225Z" style="fill:rgb(46,152,188);"/>
        <path d="M331.244,759.821C342.143,764.77 374.838,802.579 399.886,828.102L398.5,829.834C395.853,827.568 366.247,805.682 363.429,803.599C291.696,750.57 251.623,749.234 197.502,749.245C192.808,749.246 123.705,769.198 82.78,792.984C65.594,802.973 53.819,810.486 51.583,811.51C50.942,796.753 51.466,768.849 51.766,765.561C58.183,765.168 80.837,748.029 137.551,737.753C149.745,735.544 178.674,728.646 224.472,734.722C237.096,736.396 236.949,738.117 249.551,736.975C292.863,733.051 296.199,740.356 329.24,758.879C330.227,759.432 330.211,759.335 331.244,759.821Z" style="fill:rgb(41,147,183);"/>
        <path d="M372.484,327.459C371.118,333.769 324.095,387.32 318.363,489.819C301.219,487.64 288.819,487.574 264.635,492.771C263.071,483.754 277.97,429.505 287.958,406.717C305.678,366.29 317.044,351.652 326.017,338.189C330.825,330.974 333.009,330.158 330.474,329.063C330.16,328.928 329.775,329.361 329.461,329.225C332.849,328.603 360.674,323.492 372.484,327.459Z" style="fill:rgb(96,183,208);"/>
        <path d="M711.516,365.229C685.201,366.608 655.138,370.45 623.62,415.577C605.166,442 590.305,497.303 617.019,549.742C639.358,593.595 659.339,604.379 669.445,616.576C667.823,617.105 667.831,617.199 667.693,617.148C642.947,608.037 588.918,561.641 571.102,498.651C566.842,483.587 579.316,433.271 603.868,403.807C646.816,352.266 694.391,360.266 709.5,363.069L710.5,363.275L711.5,363.609L711.758,364.5L711.516,365.229Z" style="fill:rgb(95,182,206);"/>
        <path d="M600.386,348.251C640.443,330.875 683.321,329.239 734.56,357.398C742.603,361.819 747.925,367.041 744.511,366.079C737.475,364.097 739.843,356.596 699.541,348.278C658.488,339.805 621.081,354.814 613.821,360.91C558.943,406.991 564.944,483.448 569.646,502.438C569.495,502.703 570.031,503.058 569.88,503.323C569.579,503.848 568.83,503.986 568.479,504.48C568.165,504.921 573.005,536.526 574.918,543.374C587.683,589.046 610.054,614.786 610.534,615.492C610.187,615.847 609.84,616.201 609.492,616.556C608.908,616.129 608.9,616.261 608.367,615.734C594.794,602.306 544.721,558.357 539.995,479.46C537.55,438.637 545.589,436.156 543.561,434.364C543.185,434.033 542.442,434.538 542.066,434.207C545.178,421.82 565.674,391.279 576.321,383.14C579.459,380.742 578.693,379.904 583.728,376.905C589.071,373.723 588.054,372.349 593.669,369.668C596.28,368.421 595.686,367.444 599.47,366.415C600.023,366.264 600.951,365.643 603.541,365.661C605.468,365.674 604.06,364.009 604.603,363.826C606.858,363.065 607.253,363.628 608.492,361.5C610.317,358.365 606.878,359.467 606.663,358.553C606.608,358.317 607.783,357.813 606.402,356.691C605.081,355.619 603.984,356.421 600.386,348.251Z" style="fill:rgb(99,186,209);"/>
        <path d="M936.651,752.773C892.565,781.678 770.393,831.146 686.579,818.048C685.58,816.184 685.616,816.176 685.5,816.035C684.894,815.293 652.508,803.059 630.272,787.88L631.5,786.525C634.494,786.87 634.428,786.36 637.492,786.617C638.528,786.704 638.383,786.971 639.5,787.004C640.417,787.032 640.436,787.016 640.5,786.968C641.241,786.399 640.71,786.075 641.509,785.462C647.788,787.262 647.869,787.734 655.442,788.855C757.622,803.984 839.987,782.367 866.507,775.523C894.009,768.425 931.364,753.785 934.5,751.853L935.5,751.315L936.651,752.773Z" style="fill:rgb(176,219,232);"/>
        <path d="M305.568,734.309C304.653,735.317 303.492,735.733 305.277,736.694C307.489,737.885 315.615,742.259 330.136,755.883C333.077,758.643 331.529,759.151 331.244,759.821C330.211,759.335 330.227,759.432 329.24,758.879C296.199,740.356 292.863,733.051 249.551,736.975C236.949,738.117 237.096,736.396 224.472,734.722C178.674,728.646 149.745,735.544 137.551,737.753C80.837,748.029 58.183,765.168 51.766,765.561C51.565,764.368 51.119,761.721 51.634,750.44C58.566,750.817 76.559,732.959 125.549,720.685C203.04,701.27 261.858,719.481 305.568,734.309Z" style="fill:rgb(94,182,207);"/>
        <path d="M971.339,664.252C971.533,664.856 972.637,664.828 972.831,665.432C973.029,666.046 972.753,666.011 972.774,673.497C972.827,692.204 973.321,692.526 971.314,695.081C943.918,710.026 910.719,726.155 842.5,727.524C840.05,727.573 801.58,726.986 765.461,716.625C760.794,715.286 736.298,708.259 708.681,695.18C704.653,693.273 708.26,692.633 708.445,692.706C718.103,696.482 769.135,716.436 836.465,713.077C852.367,712.284 909.16,704.336 950.52,677.541C961.337,671.472 961.277,671.485 971.339,664.252Z" style="fill:rgb(192,229,238);"/>
        <path d="M971.305,571.126C971.902,571.277 972.498,571.428 973.094,571.579C971.376,589.953 974.467,611.809 971.662,616.704C969.355,619.214 960.199,629.175 938.394,643.335C878.113,682.482 824.909,682.968 814.501,683.064C788.148,683.305 779.763,680.365 763.569,677.307C762.753,677.153 762.754,677.172 762.75,677.104C762.694,675.972 763.515,676.213 763.459,675.082C768.018,675.774 767.899,675.878 772.467,676.708C794.696,680.745 842.802,670.816 874.647,654.747C901.027,640.636 910.268,633.985 926.918,619.982C927.283,619.675 954.765,597.734 971.305,571.126Z" style="fill:rgb(193,229,238);"/>
        <path d="M122.755,528.972C117.335,532.651 57.93,572.98 52.5,571.021C52.112,570.881 51.768,570.637 51.38,570.497C51.335,562.614 51.104,544.814 51.68,537.537C58.538,537.337 140.532,485.44 187.442,443.433C206.255,426.586 207.453,424.371 207.559,426.473C207.613,427.554 179.839,462.324 177.38,465.403C173.665,470.053 145.478,505.339 128.647,521.626C124.341,525.793 121.641,527.283 121.648,527.68C121.658,528.247 122.745,528.405 122.755,528.972Z" style="fill:rgb(45,150,186);"/>
        <path d="M618.901,280.106C628.26,291.26 629.545,298.449 632.731,309.454C632.321,310.03 631.91,310.606 631.5,311.182C626.449,310.452 599.518,318.9 589.588,323.673C564.496,335.734 530.379,354.157 499.659,403.65C499.384,403.176 498.584,403.185 498.31,402.711C497.979,402.138 511.991,370.21 522.386,356.423C523.113,355.459 532.723,339.858 551.315,322.301C590.676,285.133 613.173,288.165 618.901,280.106Z" style="fill:rgb(31,117,154);"/>
        <path d="M294.714,607.03C301.424,610.028 308.297,612.316 320.679,625.281C319.793,627.383 319.704,627.354 319.722,627.551C320.84,639.968 315.007,667.13 354.829,726.314C356.854,729.323 358.423,729.568 356.668,730.939C355.385,731.942 318.7,699.187 313.895,696.182C307.231,689.792 307.635,689.454 303.176,685.81C303.217,685.292 304.232,685.291 303.059,682.777C302.706,682.02 300.164,677.737 299.906,677.302C286.97,655.506 287.164,626.432 290.899,612.636C291.639,609.9 290.726,609.034 293.5,608.264L294.714,607.03Z" style="fill:rgb(44,149,186);"/>
        <path d="M462.397,338.399C464.046,342.384 460.894,341.821 456.98,350.669C425.998,420.71 433.473,485.698 434.831,497.499C435.001,498.984 434.75,498.922 434.192,500.84C428.139,499.218 428.461,498.521 422.506,496.483C413.912,493.542 412.328,493.861 407.487,492.354C408.278,474.069 405.096,412.335 462.397,338.399Z" style="fill:rgb(95,183,208);"/>
        <path d="M665.044,261.479C665.922,261.057 666.558,260.221 667.437,259.8C668.256,259.407 683.824,262.325 689.501,264.494C691.209,265.147 691.18,264.828 692.934,264.086C718.994,287.535 721.508,300.236 723.592,319.493C722.013,317.648 721.927,317.706 721.886,317.5C721.291,314.481 720.502,315.022 717.568,314.204C677.546,303.052 645.963,309.535 645.471,309.183C644.821,308.719 644.766,307.671 644.117,307.207C660.011,287.713 661.941,281.719 665.044,261.479Z" style="fill:rgb(31,121,157);"/>
        <path d="M398.558,581.56C395.872,572.975 397.363,572.569 393.676,564.431C385.537,546.466 373.732,540.504 381.52,542.228C410.735,548.696 415.909,557.452 422.953,567.013C424.122,568.6 424.567,567.791 434.496,567.657C446.041,567.502 461.541,578.918 466.25,586.648C480.27,609.656 470.421,632.8 469.865,636.5L469.508,637.5L469.401,638.5L469.062,639.5L469.034,640.5L470.502,641.504C468.711,642.534 467.657,643.529 467.677,641.468C467.712,637.77 467.817,637.791 467.74,637.482C461.414,611.939 457.928,605.835 441.773,592.28C420.726,576.929 401.273,581.086 398.558,581.56Z" style="fill:rgb(198,231,240);"/>
        <path d="M441.773,592.28C457.928,605.835 461.414,611.939 467.74,637.482C467.817,637.791 467.712,637.77 467.677,641.468C467.657,643.529 468.711,642.534 470.502,641.504C474.881,637.872 474.047,636.886 479.077,634.359C483.456,639.241 501.875,677.334 553.559,727.44C556.18,729.981 556.453,729.731 556.5,730.042C556.59,730.633 556.203,731.232 556.293,731.822C551.193,729.592 551.227,729.676 546.296,726.986C546.313,726.385 547.416,726.188 547.433,725.587C547.449,725.027 540.648,721.749 536.424,718.595C466.279,666.212 437.195,607.119 431.481,595.509C431.975,595.382 432.254,594.778 432.748,594.651C436.841,593.602 437.41,595.387 441.773,592.28Z" style="fill:rgb(96,182,206);"/>
        <path d="M429.497,595.041C430.158,595.197 430.819,595.353 431.481,595.509C437.195,607.119 466.279,666.212 536.424,718.595C540.648,721.749 547.449,725.027 547.433,725.587C547.416,726.188 546.313,726.385 546.296,726.986C486.263,695.094 434.992,645.352 417.278,604.59C416.411,602.596 421.473,597.749 429.497,595.041Z" style="fill:rgb(23,90,127);"/>
        <path d="M427.424,269.301C426.77,269.976 425.908,271.359 420.119,276.019C398.801,293.179 390,306.023 382.44,314.529C367.674,306.659 368.344,305.219 352.453,300.858C352.772,300.713 353.178,301.12 353.497,300.975C356.156,299.763 355,298.539 369.872,283.83C376.113,277.657 377.423,278.928 377.282,278.197C377.125,277.381 375.647,277.28 375.49,276.464C379.54,275.375 414.86,265.878 427.424,269.301Z" style="fill:rgb(95,184,207);"/>
        <path d="M828.049,479.043C825.735,484.022 820.547,490.464 812.861,495.977C780.525,519.167 751.448,503.246 746.613,501.288C742.236,499.516 746.782,498.986 749.452,498.323C749.915,498.58 750.037,499.258 750.5,499.515C751.437,500.036 768.58,499.728 778.656,495.9C812.641,482.986 825.061,460.607 829.237,452.219C832.011,446.648 831.59,466.777 828.049,479.043Z" style="fill:rgb(249,252,251);"/>
        <path d="M501.499,229.5C501.674,229.224 501.386,228.797 501.561,228.52C501.739,228.238 520.065,229.444 531.553,232.314C547.769,236.365 561.141,242.126 563.63,243.198L562.69,244.5L563.907,245.5C563.546,245.68 564.861,246.374 564.5,246.553C562.08,247.758 549.498,249.244 525.457,259.43C524.5,259.835 523.585,260.423 522.557,260.573C521.916,260.667 522.186,259.999 521.5,260.008C520.61,260.02 520.858,260.596 520.025,260.607C516.487,249.686 514.18,242.487 501.499,229.5Z" style="fill:rgb(33,113,159);"/>
        <path d="M375.49,276.464C375.647,277.28 377.125,277.381 377.282,278.197C377.423,278.928 376.113,277.657 369.872,283.83C355,298.539 356.156,299.763 353.497,300.975C353.178,301.12 352.772,300.713 352.453,300.858C350.162,300.407 344.875,298.94 334.509,298.992C330.015,299.015 325.113,300.43 328.865,297.913C344.396,287.497 371.621,277.837 375.49,276.464Z" style="fill:rgb(45,151,185);"/>
        <path d="M663.909,244.594C666.268,244.12 667.517,243.869 689.194,260.878C689.504,261.122 689.471,261.116 692.934,264.086C691.18,264.828 691.209,265.147 689.501,264.494C683.824,262.325 668.256,259.407 667.437,259.8C666.558,260.221 665.922,261.057 665.044,261.479C664.877,252.963 665.055,252.998 663.909,244.594Z" style="fill:rgb(22,97,136);"/>
        <path d="M843.588,768.812C842.39,769.072 838.149,769.993 828.55,771.76C827.867,771.177 827.183,770.594 826.5,770.011L827.5,769.156L828.5,768.499L829.5,768.176C830.221,768.149 836.575,767.912 838.5,767.683L839.5,767.577L840.5,767.553L841.5,767.507L842.5,767.204L843.588,768.812Z" style="fill:rgb(43,122,156);"/>
        <path d="M279.503,660.72C279.378,656.595 280.26,656.491 280.61,656.45C280.719,656.437 280.375,656.675 281.284,657.647C283.408,659.917 279.782,660.663 279.503,660.72Z" style="fill:rgb(32,112,159);"/>
        <path d="M764.329,290.276C764.324,290.856 764.863,291.354 764.858,291.934C764.857,292.053 763.772,292.443 763.347,292.276C761.823,291.678 763.114,291.302 764.329,290.276Z" style="fill:rgb(202,232,236);"/>
        <path d="M971.305,571.126C972.153,570.1 972.661,569.351 973.076,570.677C973.166,570.964 973.005,571.292 973.094,571.579C972.498,571.428 971.902,571.277 971.305,571.126Z" style="fill:rgb(198,202,191);"/>
        <path d="M429.497,595.041C430.934,593.701 430.946,593.461 431.043,593.599C431.133,593.728 431.075,593.741 431.481,595.509C430.819,595.353 430.158,595.197 429.497,595.041Z" style="fill:rgb(39,128,160);"/>
        <path d="M610.534,615.492C610.518,616.191 611.25,615.822 611.233,616.545C611.205,617.719 610.638,616.548 609.492,616.556C609.84,616.201 610.187,615.847 610.534,615.492Z" style="fill:rgb(174,217,228);"/>
        <path d="M785.576,372.5C785.183,372.675 785.156,373.325 784.763,373.5C784.192,373.755 783.882,373.336 783.836,373.275C783.041,372.201 784.402,373.023 785.576,372.5Z" style="fill:rgb(42,149,185);"/>
        <path d="M659.801,274.352C660.078,274.873 660.438,274.039 660.683,274.5C660.728,274.583 661.027,275.146 660.5,275.667C659.724,276.435 660.299,275.29 659.801,274.352Z" style="fill:rgb(221,240,242);"/>
        <path d="M501.172,815.63C499.992,815.231 500.011,815.328 499.992,815.231C499.98,815.166 499.82,814.316 500.364,814.5C500.803,814.648 500.734,815.482 501.172,815.63Z" style="fill:rgb(153,198,206);"/>
    </g>
</svg>
