<?xml version="1.0" encoding="UTF-8" standalone="no"?><!DOCTYPE svg PUBLIC "-//W3C//DTD SVG 1.1//EN" "http://www.w3.org/Graphics/SVG/1.1/DTD/svg11.dtd"><svg width="100%" height="100%" viewBox="0 0 4846 6400" version="1.1" xmlns="http://www.w3.org/2000/svg" xmlns:xlink="http://www.w3.org/1999/xlink" xml:space="preserve" xmlns:serif="http://www.serif.com/" style="fill-rule:evenodd;clip-rule:evenodd;stroke-linejoin:round;stroke-miterlimit:2;"><path d="M1406.577,1240.083c-40.711,-541.958 224.028,-622.968 487.222,-855.047c40.382,-35.608 19.906,33.419 18.696,46.597c-35.495,386.629 4.381,447.765 130.507,647.538c82.02,129.913 117.97,225.926 123.596,183.043c88.889,-677.529 -302.838,-1180.878 -327.679,-1257.395c-12.525,-38.58 433.387,163.318 613.311,290.315c1065.548,752.102 910.535,1510.904 813.294,2093.49c-5.449,32.644 -64.721,387.752 123.891,396.564c280.258,13.094 -362.61,-889.071 509.206,-1343.406c74.201,-38.669 155.53,-97.821 135.299,-27.365c-200.814,699.366 40.846,832.598 423.003,1423.54c1421.274,2197.765 -1352.219,4641.013 -3534.619,3054.376c-917.234,-666.843 -1016.695,-1783.096 -863.438,-2324.276c312.885,-1104.86 912.385,-1063.741 768.614,-1956.488c-8.023,-49.82 192.421,52.474 242.557,89.688c371.95,276.084 215.739,755.863 269.28,714.763c489.715,-375.924 110.204,-604.26 67.261,-1175.936Z" style="fill:#273a46;"/><path d="M1389.279,3196.316c4.34,-3.892 11.325,-7.237 16.754,-8.459c2.842,-0.639 5.52,-0.497 6.604,0.023c0.717,0.344 1.898,0.617 2.933,1.797c0.907,1.035 1.702,2.894 1.975,4.393c0.736,4.053 -0.633,9.265 -1.572,13.084c-136.083,553.345 247.8,463.369 380.937,292.569c280.139,-359.387 35.394,-701.734 771.816,-1226.982c91.853,-65.513 -155.055,345.527 214.844,843.838c276.807,372.901 741.406,495.893 678.869,145.714c-15.197,-85.098 422.545,255.479 606.325,711.618c79.941,198.412 450.648,1232.383 -680.937,2029.332c-307.245,173.056 -291.719,223.566 -639.277,306.51c-319.081,77.787 -640.952,-1.402 -711.532,-41.304c-47.539,-14.626 -160.571,-56.898 -269.02,-112.572c-53.675,-27.555 -76.128,-11.539 -102.127,-25.585c-13.186,-8.94 -245.222,-133.198 -484.262,-364.157c-242.406,-234.211 -492.07,-578.109 -536.091,-1017.121c-6.44,-64.226 -42.176,-420.613 137.159,-796.167c208.914,-437.499 497.844,-658.993 606.603,-756.534Z" style="fill:#c01f19;"/><path d="M1953.705,6293.416c-16.047,-4.472 -69.976,-17.465 -91.941,-24.901c-42.192,-14.284 -94.227,-23.966 -151.978,-48.762c-66.455,-28.533 -140.477,-53.844 -215.776,-95.501c-153.273,-84.794 -325.695,-177.851 -497.067,-319.342c-543.203,-448.486 -1061.943,-1222.693 -811.921,-2248.447c198.529,-814.493 782.197,-963.936 785.893,-1768.47c0.329,-71.561 466.5,338.199 156.296,882.851c-1.429,2.509 -153.678,225.869 -105.07,163.586c24.406,-31.273 67.173,-91.601 254.03,-233.997c385.432,-293.722 554.676,-428.493 327.706,-1000.675c-46.413,-117.005 -220.047,-540.58 154.533,-956.531c51.353,-57.025 -10.046,144.979 106.929,364.674c257.494,483.607 345.332,523.836 67.016,997.679c-101.372,172.589 583.576,-506.476 292.773,-1443.277c-69.982,-225.442 -167.893,-360.926 -105.352,-330.344c1519.289,742.922 1025.384,2184.532 1020.624,2199.324c-165.173,513.255 551.762,588.007 453.544,207.728c-27.901,-108.026 -240.979,-684.637 241.962,-1029.494c139.863,-99.873 -174.562,149.339 167.529,755.387c189.314,335.389 1209.04,1393.752 442.309,2765.052c-491.129,878.385 -1534.125,1142.567 -1661.119,1176.794c-2.236,0.603 -61.182,12.278 -10.273,-3.124c36.991,-11.191 22.863,-5.869 55.358,-18.161c202.749,-76.695 513.413,-213.465 535.141,-223.846c112.71,-53.853 538.546,-385.528 717.419,-657.844c935.78,-1424.629 -33.934,-2516.341 -216.188,-2843.711c-63.982,-114.926 -147.173,-417.174 -123.658,-248.794c11.648,83.408 15.774,80.749 27.227,163.478c94.124,679.925 -366.163,728.933 -543.922,600.767c-468.847,-338.042 -232.63,-1092.594 -312.089,-1572.327c-75.215,-454.113 -461.781,-856.545 -429.072,-766.056c380.145,1051.677 -366.461,1488.657 -1076.352,2072.053c-544.976,447.867 -518.729,773.178 -555.765,670.562c-73.57,-203.839 78.428,-495.681 98.778,-534.753c53.089,-101.933 -254.927,227.776 -431.624,709.59c-82.385,224.646 -136.223,482.359 -111.601,744.804c114.467,1220.133 1156.285,1699.143 1158.429,1698.18c52.486,28.355 149.797,76.323 247.999,123.534c85.197,40.959 195.863,63.996 238.374,90.748" style="fill:#1789c0;"/><path d="M2058.981,6313.603c0,0 -122.606,-37.501 -245.771,-88.976c-100.652,-42.066 -202.849,-98.127 -229.081,-111.942c0,0 -1079.718,-501.373 -1177.626,-1713.994c-68.149,-844.044 622.564,-1603.158 544.722,-1453.698c-20.35,39.072 -172.348,330.914 -98.778,534.753c37.036,102.616 10.79,-222.695 555.765,-670.562c709.891,-583.396 1456.497,-1020.376 1076.352,-2072.053c-32.708,-90.488 353.857,311.943 429.072,766.056c79.459,479.733 -156.758,1234.286 312.089,1572.327c177.759,128.165 638.046,79.158 543.922,-600.767c-11.452,-82.729 -15.578,-80.07 -27.227,-163.478c-23.515,-168.38 59.676,133.869 123.658,248.794c182.254,327.37 1151.968,1419.081 216.188,2843.711c-87.428,133.1 -261.499,333.839 -420.494,461.051c-68.727,54.988 -238.526,169.979 -336.715,226.018c-48.281,27.555 -136.606,70.516 -227.963,110.407c-56.027,24.464 -113.195,47.774 -162.966,65.668c-118.462,42.59 -274.743,63.669 -240.7,53.778c38.509,-11.188 120.944,-29.973 214.925,-67.465c45.857,-18.294 93.439,-38.904 136.669,-58.658c62.261,-28.45 115.498,-55.126 141.559,-70.554c89.048,-52.715 211.969,-138.2 270.233,-184.589c78.088,-62.172 155.264,-122.443 226.129,-201.285c186.289,-207.261 370.794,-483.35 431.72,-685.637c144.048,-478.27 -1.646,-968.751 -45.903,-1078.596c-183.781,-456.139 -621.522,-796.716 -606.325,-711.618c62.536,350.179 -402.063,227.187 -678.869,-145.714c-369.899,-498.311 -122.991,-909.351 -214.844,-843.838c-736.422,525.248 -491.677,867.595 -771.816,1226.982c-133.137,170.8 -517.02,260.776 -380.937,-292.569c6.85,-22.826 -6.809,-25.103 -26.693,-10.839c-108.759,97.54 -397.689,319.034 -606.603,756.534c-179.334,375.554 -143.599,731.941 -137.159,796.167c8.652,86.281 62.183,311.031 130.222,456.135c99.147,211.446 295.654,456.246 411.064,566.31c25.421,24.244 49.106,39.879 72.253,59.567c49.904,42.445 122.238,92.637 300.931,205.582c20.761,13.122 22.495,12.586 43.805,25.137c83.232,49.022 184.817,104.798 262.926,140.35c49.8,22.667 242.866,89.041 242.866,89.041c0,0 113.783,31.232 166.933,38.977c114.423,16.674 69.732,12.166 82.35,12.576" style="fill:#314a78;"/></svg>